<svg width="191" height="70" viewBox="0 0 191 70" fill="none" xmlns="http://www.w3.org/2000/svg">
<path d="M24 11.5C10.807 11.5 0 22.1667 0 35.5C0 48.693 10.6667 59.5 24 59.5C37.193 59.5 48 48.8333 48 35.5C48 22.1667 37.193 11.5 24 11.5ZM24 57.5351C11.7895 57.5351 1.9649 47.7105 1.9649 35.5C1.9649 23.2895 11.7895 13.4649 24 13.4649C36.2105 13.4649 46.0351 23.2895 46.0351 35.5C46.1754 47.5702 36.2105 57.5351 24 57.5351Z" fill="#737373"/>
<path d="M23.5 53.5C24.3298 53.5 24.7447 52.9377 24.883 52.2349C25.0213 52.5161 25.2979 52.7972 25.5745 52.9377C25.8511 52.9377 26.266 52.9378 26.5425 52.7972C26.8191 52.6566 27.0957 52.3755 27.234 52.0944C27.3723 51.8133 27.3723 51.3916 27.234 51.1104C27.6489 51.6727 28.2021 51.8133 28.8936 51.5321C29.7234 51.1104 30 50.5482 29.5851 49.7048C28.617 47.3153 27.6489 45.0663 26.6808 42.6767C26.5425 42.3956 26.5426 42.255 26.4043 41.9739C26.266 41.8333 26.266 41.6928 26.1277 41.5522C26.1277 41.4116 25.9894 41.4116 25.8511 41.2711C27.3723 41.4116 28.0638 41.9739 28.4787 42.255C28.617 42.3956 28.617 42.3956 29.0319 42.255C29.1702 42.255 29.4468 42.255 29.5851 42.255C29.7234 42.3956 30 42.5361 30.1383 42.5361C30.6915 42.9578 31.2447 43.3795 31.7979 43.8012C32.0745 44.0823 32.3511 44.3634 32.3511 44.7851C32.3511 45.0663 31.5213 45.7691 31.383 46.0502C30.8298 46.6124 31.6596 47.4558 32.766 47.4558C32.4894 47.1747 32.3511 46.8936 32.4894 46.6124C32.6277 46.6124 32.766 46.6124 33.0426 46.4719C33.3192 46.3313 33.1809 45.6285 33.3191 45.4879C33.734 45.0663 34.8404 45.0663 35.6702 45.0663C35.9468 45.0663 36.3617 44.9257 36.2234 44.504C36.6383 44.504 36.7766 44.9257 36.7766 45.2068C37.1915 44.9257 37.4681 43.9418 36.0851 43.6606C36.3617 43.3795 36.7766 43.3795 37.0532 43.6606C37.3298 43.239 36.6383 42.5361 35.5319 42.9578C35.5319 42.9578 34.9787 42.255 33.5957 43.9418C33.4574 43.8012 33.1809 43.6606 33.0426 43.5201C32.4894 42.9578 31.1064 41.5522 31.1064 41.5522C31.1064 40.7088 30.9681 39.1626 30 38.3193C29.5851 37.8976 29.1702 37.757 28.2021 37.4759C28.2021 37.4759 28.617 36.7731 28.7553 36.492C29.5851 37.3353 31.2447 37.6165 31.2447 36.2108C32.6277 37.6165 33.8723 36.7731 33.8723 35.9297C33.8723 36.3514 34.0106 36.7731 34.1489 37.1948C34.2872 37.6165 34.9787 39.4438 36.5 39.4438C36.5 40.006 36.5 42.1145 38.4362 42.5361C38.5745 42.5361 38.5745 42.5361 38.7128 42.6767C39.5426 43.6606 42.7234 44.6446 43 44.3635C42.7234 44.2229 42.3085 43.9418 42.3085 42.8173C42.3085 42.1145 42.1702 38.1787 42.1702 32.6968C42.1702 30.7289 42.0319 24.4036 35.8085 23.5602C34.8404 23.4197 34.0106 23.5602 33.1809 24.1225C32.0745 24.9659 31.5213 26.3715 32.2128 27.9177V28.0582C32.4894 28.4799 32.3511 28.761 32.0745 29.0422C31.5213 29.6044 30.9681 29.8855 30.2766 30.0261C29.8617 30.0261 29.4468 29.8855 29.1702 29.6044C28.4787 28.9016 28.0638 28.0582 27.7872 27.0743C27.5106 25.247 27.9255 24.2631 27.9255 24.1225C28.4787 23.1386 29.4468 22.2952 30.6915 22.2952C31.2447 21.1707 32.9043 21.5924 32.9043 21.5924C33.3191 21.7329 33.4574 21.7329 33.5957 22.0141C33.5957 22.0141 34.2872 20.8896 33.5957 20.4679C32.9043 20.0462 31.383 19.9056 31.383 19.9056C31.383 19.2028 30.2766 18.6406 28.0638 19.0623C25.5745 19.4839 25.0213 18.5 25.0213 18.5C24.883 19.7651 25.8511 20.3273 26.1277 20.6084C25.1596 21.7329 23.7766 23.8414 23.5 26.7932C23.2234 23.8414 21.8404 21.7329 20.8723 20.6084C21.1489 20.4679 22.117 19.7651 21.9787 18.5C21.9787 18.5 21.4255 19.4839 18.9362 19.0623C16.8617 18.6406 15.617 19.2028 15.617 19.9056C15.617 19.9056 14.0957 20.0462 13.4043 20.4679C12.7128 20.8896 13.4043 22.0141 13.4043 22.0141C13.5425 21.8735 13.6808 21.7329 14.0957 21.5924C14.0957 21.5924 15.7553 21.1707 16.3085 22.2952C17.5532 22.4357 18.5213 23.1386 19.0745 24.1225C19.0745 24.1225 19.6277 25.1064 19.2128 27.0743C19.0745 28.0582 18.5213 28.9016 17.8298 29.6044C17.5532 29.8855 17.1383 30.1667 16.7234 30.0261C16.0319 29.8855 15.4787 29.6044 14.9255 29.0422C14.6489 28.761 14.5106 28.4799 14.7872 28.0582V27.9177C15.4787 26.3715 14.9255 24.9659 13.8191 24.1225C12.9894 23.5602 12.1596 23.4197 11.1915 23.5602C5.10638 24.4036 4.82979 30.7289 4.82979 32.6968C4.82979 38.1787 4.69149 42.1145 4.69149 42.8173C4.69149 43.9418 4.2766 44.2229 4 44.3635C4.41489 44.6446 7.59574 43.6606 8.28723 42.6767C8.28723 42.6767 8.42553 42.5361 8.56382 42.5361C10.5 42.1145 10.5 40.006 10.5 39.4438C12.0213 39.4438 12.7128 37.6165 12.8511 37.1948C12.9894 36.7731 13.1277 36.3514 13.1277 35.9297C13.1277 36.7731 14.3723 37.4759 15.7553 36.2108C15.7553 37.6165 17.4149 37.3353 18.2447 36.492C18.383 36.7731 18.7979 37.4759 18.7979 37.4759C17.8298 37.6165 17.4149 37.8976 17 38.3193C15.8936 39.3032 15.8936 40.8494 15.8936 41.5522C15.8936 41.5522 14.5106 42.9578 13.9574 43.5201C13.8191 43.6606 13.5425 43.8012 13.4043 43.9418C11.883 42.255 11.4681 42.9578 11.4681 42.9578C10.3617 42.5361 9.80851 43.239 9.9468 43.6606C10.2234 43.3795 10.6383 43.5201 10.9149 43.6606C9.39362 43.9418 9.80851 45.0663 10.2234 45.2068C10.2234 44.9257 10.3617 44.504 10.7766 44.504C10.7766 44.9257 11.0532 45.0663 11.3298 45.0663C12.0213 45.0663 13.266 45.0663 13.6809 45.4879C13.9574 45.6285 13.8191 46.3313 13.9574 46.4719C14.0957 46.6124 14.3723 46.6124 14.5106 46.6124C14.5106 46.8936 14.5106 47.0341 14.234 47.4558C15.3404 47.5964 16.0319 46.6124 15.617 46.0502C15.3404 45.7691 14.6489 45.0663 14.6489 44.7851C14.6489 44.504 14.9255 44.0823 15.2021 43.8012C15.7553 43.3795 16.3085 42.9578 16.8617 42.5361C17 42.3956 17.1383 42.255 17.4149 42.255C17.5532 42.1145 17.8298 42.1145 17.9681 42.255C18.383 42.3956 18.383 42.3956 18.5213 42.255C18.9362 41.9739 19.6277 41.4116 21.1489 41.2711C21.0106 41.2711 21.0106 41.4116 20.8723 41.5522C20.734 41.6928 20.734 41.8333 20.5957 41.9739C20.4574 42.1145 20.4574 42.3956 20.3191 42.6767C19.3511 45.0663 18.383 47.3153 17.4149 49.7048C17.1383 50.5482 17.4149 51.1104 18.1064 51.5321C18.6596 51.8133 19.3511 51.6727 19.766 51.1104C19.6277 51.5321 19.6277 51.8133 19.766 52.0944C19.9042 52.3755 20.1808 52.6566 20.4574 52.7972C20.734 52.9378 21.1489 52.9377 21.4255 52.9377C21.8404 52.7972 21.9787 52.6566 22.117 52.2349C22.2553 52.9377 22.6702 53.5 23.5 53.5Z" fill="#737373"/>
<path d="M63.5375 26.7764C64.775 26.7764 67.525 26.6382 69.0375 26.5C69.0375 26.7764 69.0375 27.1911 69.0375 27.3293C69.0375 27.4675 69.0375 27.8821 69.0375 28.1585C67.6625 28.0203 65.4625 27.8821 64.775 27.8821C64.225 27.8821 62.4375 27.8821 61.3375 28.0203V33.8252H62.575C65.05 33.8252 70 34.2398 70 38.5244C70 41.9797 67.1125 43.5 63.4 43.5C62.9875 43.5 61.475 43.5 60.375 43.5C59.9625 43.5 59.4125 43.5 59 43.5C59.1375 40.874 59.1375 37.4187 59.1375 34.5163C59.1375 31.8902 59.1375 27.8821 59 26.6382C60.5125 26.6382 62.9875 26.7764 63.5375 26.7764ZM61.3375 42.1179C61.8875 42.1179 62.7125 42.1179 63.2625 42.1179C66.0125 42.1179 67.525 40.874 67.525 38.3862C67.525 35.7602 65.6 34.9309 61.2 34.9309V42.1179H61.3375Z" fill="#737373"/>
<path d="M73.0132 33.118C74.0263 32.0393 75.7631 31.5 77.2105 31.5C79.8158 31.5 81.5526 32.7135 81.5526 35.5449V41.2079C81.5526 42.4213 81.8421 42.691 82.2763 42.691C82.4211 42.691 82.7105 42.691 82.8553 42.5562L83 43.0955C82.2763 43.5 81.5526 43.5 81.1184 43.5C80.25 43.5 79.8158 43.0955 79.671 42.5562L79.5263 42.0169C78.2237 42.9607 76.7763 43.5 75.6184 43.5C73.4474 43.5 72 42.4213 72 40.5337C72 38.5112 73.5921 37.5674 75.9079 37.1629L78.3684 36.7584C79.2368 36.6236 79.671 36.3539 79.671 35.8146C79.671 33.3876 78.5132 32.7135 76.6316 32.7135C75.1842 32.7135 74.171 33.118 73.3026 34.6011H73.0132V33.118ZM79.671 37.4326L78.079 37.7022C76.3421 37.9719 74.3158 38.5112 74.3158 40.264C74.3158 41.6124 75.0395 42.2865 76.6316 42.2865C77.6447 42.2865 78.5132 42.0169 79.5263 40.9382V37.4326H79.671Z" fill="#737373"/>
<path d="M85.2 31.5C85.4667 31.5 85.8667 31.5 86.2667 31.5C86.1333 33.314 86 36.2442 86 36.3837C86.9333 36.3837 88.2667 36.5233 89.0667 36.5233C89.8667 36.5233 91.2 36.5233 91.8667 36.3837C91.8667 36.2442 91.8667 33.314 91.7333 31.5C92.1333 31.5 92.6667 31.5 92.9333 31.5C93.2 31.5 93.6 31.5 94 31.5C93.8667 33.314 93.7333 36.2442 93.7333 37.5C93.7333 38.4767 93.7333 41.686 94 43.5C93.6 43.5 93.3333 43.5 92.9333 43.5C92.5333 43.5 92.1333 43.5 91.7333 43.5C91.8667 41.686 91.8667 38.4767 91.8667 37.7791C90.9333 37.6395 89.4667 37.6395 89.0667 37.6395C88.4 37.6395 86.9333 37.6395 86 37.7791C86 38.6163 86 41.686 86.2667 43.5C85.8667 43.5 85.6 43.5 85.2 43.5C84.8 43.5 84.4 43.5 84 43.5C84.1333 41.686 84.2667 38.4767 84.2667 37.5C84.2667 36.2442 84.2667 33.314 84 31.5C84.4 31.5 84.9333 31.5 85.2 31.5Z" fill="#737373"/>
<path d="M99.3026 31.6395C99.5921 31.6395 100.026 31.6395 100.461 31.6395C100.316 33.4535 100.316 36.3837 100.316 36.8023H100.75C101.618 36.8023 105.671 32.3372 106.105 31.6395C106.395 31.6395 106.974 31.6395 107.263 31.6395C107.553 31.6395 108.132 31.6395 108.421 31.6395L102.632 36.6628C103.355 37.5 107.263 41.686 109 43.5C108.276 43.5 107.842 43.5 107.553 43.5C107.118 43.5 106.395 43.5 105.961 43.5C105.092 42.1047 102.342 39.0349 100.75 37.3605H100.316C100.316 38.1977 100.316 41.686 100.461 43.5C100.171 43.5 99.7369 43.5 99.3026 43.5C98.8684 43.5 98.4342 43.5 98 43.5C98.1447 41.686 98.2895 38.4767 98.2895 37.5C98.2895 36.2442 98.2895 33.314 98 31.5C98.4342 31.6395 98.8684 31.6395 99.3026 31.6395Z" fill="#737373"/>
<path d="M118.506 26.6393C119.342 26.6393 120.316 26.5 121.013 26.5C125.329 26.5 127 27.7541 127 30.8197C127 34.582 123.797 35.8361 119.899 35.8361C119.62 35.8361 118.785 35.8361 118.367 35.6967V39.7377C118.367 40.8525 118.367 42.3852 118.506 43.5C118.089 43.5 117.671 43.5 117.253 43.5C116.835 43.5 116.278 43.5 116 43.5C116.139 40.8525 116.139 37.3689 116.139 34.4426C116.139 31.7951 116.139 27.7541 116 26.5C116.975 26.5 117.949 26.6393 118.506 26.6393ZM119.481 34.582C122.823 34.582 124.633 33.3279 124.633 30.8197C124.633 28.4508 122.823 27.8934 120.456 27.8934C120.038 27.8934 118.646 27.8934 118.367 27.8934V34.4426C118.785 34.582 119.203 34.582 119.481 34.582Z" fill="#737373"/>
<path d="M140 37.4326C140 40.9382 137.6 43.5 133.929 43.5C130.259 43.5 128 40.9382 128 37.7022C128 33.927 130.541 31.5 134.212 31.5C137.741 31.5 140 33.927 140 37.4326ZM130.259 37.5674C130.259 40.1292 131.388 42.5562 133.929 42.5562C136.329 42.5562 137.741 40.264 137.741 37.2978C137.741 34.8708 136.753 32.309 134.071 32.309C131.529 32.309 130.259 34.8708 130.259 37.5674Z" fill="#737373"/>
<path d="M150.2 34.0909H149.933C149.133 32.7273 148.067 32.3182 146.867 32.3182C144.2 32.3182 143 34.9091 143 37.5C143 40.3636 144.6 42.6818 147.4 42.6818C148.333 42.6818 149.133 42.5455 150.467 41.0455L150.733 41.3182L150.467 42.4091C149.4 43.0909 148.2 43.5 146.733 43.5C143.267 43.5 141 41.0455 141 37.5C141 33.8182 143.533 31.5 147.133 31.5C148.333 31.5 149.533 31.7727 151 32.4546L150.2 34.0909Z" fill="#737373"/>
<path d="M162.333 34.0909H162.067C161.267 32.7273 160.2 32.3182 159 32.3182C156.333 32.3182 155.133 34.9091 155.133 37.5C155.133 40.3636 156.733 42.6818 159.533 42.6818C160.467 42.6818 161.267 42.5455 162.6 41.0455L162.733 41.3182L162.467 42.4091C161.4 43.0909 160.2 43.5 158.733 43.5C155.267 43.5 153 41.0455 153 37.5C153 33.8182 155.533 31.5 159.133 31.5C160.333 31.5 161.533 31.7727 163 32.4546L162.333 34.0909Z" fill="#737373"/>
<path d="M166.724 43.3621C166.579 43.3621 166.145 43.3621 166 43.3621C166.145 41.569 166.289 38.3966 166.289 37.431C166.289 36.1897 166.289 33.2931 166 31.5C166.434 31.5 167.013 31.5 167.303 31.5C167.592 31.5 168.026 31.5 168.461 31.5C168.316 33.2931 168.171 36.1897 168.171 37.431C168.171 38.3966 168.171 39.7759 168.171 40.4655C169.474 38.9483 174.25 33.1552 175.408 31.6379C175.697 31.6379 175.842 31.6379 176.132 31.6379C176.276 31.6379 176.855 31.6379 177 31.6379C176.855 33.431 176.711 36.3276 176.711 37.569C176.711 38.5345 176.711 41.7069 177 43.5C176.566 43.5 176.276 43.5 175.842 43.5C175.408 43.5 174.974 43.5 174.539 43.5C174.684 41.7069 174.829 38.5345 174.829 37.569C174.829 36.3276 174.829 34.8103 174.829 34.3965C173.237 36.0517 168.75 41.431 167.447 43.5C167.158 43.3621 166.868 43.3621 166.724 43.3621Z" fill="#737373"/>
<path d="M179.724 43.3621C179.579 43.3621 179.145 43.3621 179 43.3621C179.145 41.569 179.145 38.3966 179.145 37.431C179.145 36.1897 179.145 33.2931 179 31.5C179.434 31.5 180.013 31.5 180.303 31.5C180.592 31.5 181.026 31.5 181.461 31.5C181.171 33.431 181.171 36.3276 181.171 37.569C181.171 38.5345 181.171 39.9138 181.171 40.6034C182.474 39.0862 187.25 33.2931 188.408 31.7759C188.697 31.7759 188.842 31.7759 189.132 31.7759C189.276 31.7759 189.855 31.7759 190 31.7759C189.855 33.431 189.855 36.3276 189.855 37.569C189.855 38.5345 189.855 41.7069 190 43.5C189.566 43.5 189.276 43.5 188.842 43.5C188.408 43.5 187.974 43.5 187.539 43.5C187.684 41.7069 187.684 38.5345 187.684 37.569C187.684 36.3276 187.684 34.8103 187.684 34.3965C186.092 36.0517 181.605 41.431 180.303 43.5C180.158 43.3621 180.013 43.3621 179.724 43.3621Z" fill="#737373"/>
</svg>
