<svg width="202" height="37" viewBox="0 0 202 37" fill="none" xmlns="http://www.w3.org/2000/svg">
<g clip-path="url(#clip0_1_36)">
<path d="M115.759 27.8118H118.048V17.2865H126.016V15.1734H118.048V9.7017H127.248V7.58857H115.759V27.8147V27.8118ZM41.3406 16.4072L39.2757 15.5539C37.5221 14.8188 36.5868 13.8184 36.5868 12.4087C36.5868 10.8202 37.8882 9.90926 39.2176 9.90926C40.7466 9.90926 41.9897 11.146 42.2451 13.1179H45.6972C45.0757 8.73884 42.3312 7.05813 39.3591 7.05813C35.8791 7.05813 33.2761 9.29234 33.2761 12.5269C33.2761 15.4357 35.1437 17.4652 37.8606 18.5521L39.9252 19.3766C41.8206 20.1405 42.8391 21.2591 42.8391 22.7264C42.8391 24.1938 41.7067 25.3441 39.7836 25.3441C37.6607 25.3441 36.4452 23.7845 36.3037 21.4926H32.8516C32.9653 24.9895 35.3713 28.2241 39.7006 28.2241C43.4356 28.2241 46.1802 25.8717 46.1802 22.5506C46.1802 19.4054 44.1432 17.5517 41.3406 16.4072ZM48.9331 10.9096H52.1297V7.58857H48.9331V10.9096ZM48.9331 27.8118H52.1297V15.1705H48.9331V27.8118ZM71.1807 14.7611C69.1438 14.7611 67.7562 16.1708 67.0208 18.111H66.9653C66.4852 15.701 64.8702 14.7611 63.1442 14.7611C61.2487 14.7611 59.8612 15.9662 59.1537 18.0245H59.0982V15.1734H55.9012V27.8147H59.0982V22.5535C59.0982 19.1719 60.0612 17.4681 61.8703 17.4681C63.1442 17.4681 63.9352 18.3791 63.9352 20.3481V27.8147H67.1318V22.5535C67.1318 19.1719 68.0672 17.4681 69.9042 17.4681C71.1502 17.4681 71.9412 18.3791 71.9412 20.3481V27.8147H75.1378V19.6706C75.1378 16.0843 73.2148 14.7611 71.1752 14.7611H71.1807ZM85.8384 14.7611C83.7158 14.7611 82.3863 16.289 81.8203 17.6123H81.7648V15.1734H78.5678V34.575H81.7648V25.3729H81.8203C82.3863 26.6962 83.7158 28.2241 85.8384 28.2241C88.6384 28.2241 91.3553 25.7852 91.3553 21.4926C91.3553 17.2 88.6384 14.7611 85.8384 14.7611ZM84.8478 25.6064C83.1218 25.6064 81.5928 24.1073 81.5928 21.4897C81.5928 18.8721 83.1218 17.373 84.8478 17.373C86.5738 17.373 88.1308 18.8721 88.1308 21.4897C88.1308 24.1073 86.5738 25.6064 84.8478 25.6064ZM93.9418 27.8118H97.1384V7.58567H93.9418V27.8118ZM106.177 14.7294C102.356 14.7294 99.7249 17.6382 99.7249 21.4609C99.7249 25.2836 102.356 28.2212 106.149 28.2212C109.149 28.2212 111.469 26.4569 112.262 23.9892H109.093C108.641 25.0183 107.623 25.6064 106.18 25.6064C104.256 25.6064 103.01 24.0785 102.869 22.196H112.462C112.518 17.2577 109.548 14.7294 106.18 14.7294H106.177ZM102.922 20.1694C103.232 18.4051 104.365 17.2288 106.119 17.2288C107.759 17.2288 109.032 18.3157 109.204 20.1694H102.922ZM129.407 27.8118H131.585V15.1705H129.407V27.8118ZM141.212 14.8476C139.317 14.8476 137.929 15.7586 137.052 17.8746H137.025V15.1705H134.846V27.8118H137.025V21.8155C137.025 18.4339 138.468 16.7878 140.505 16.7878C142.147 16.7878 143.108 17.8746 143.108 19.9618V27.8118H145.286V19.6678C145.286 16.0815 143.221 14.8476 141.212 14.8476ZM157.105 17.4941H157.077C156.597 16.5225 155.323 14.8188 153.059 14.8188C150.456 14.8188 147.512 17.1107 147.512 21.4926C147.512 25.8746 150.453 28.1664 153.059 28.1664C155.323 28.1664 156.597 26.4598 157.077 25.4911H157.105V27.8147H159.283V15.1734H157.105V17.497V17.4941ZM153.542 26.2234C151.816 26.2234 149.721 24.929 149.721 21.4897C149.721 18.0505 151.816 16.7561 153.542 16.7561C155.268 16.7561 157.333 18.0505 157.333 21.4897C157.333 24.929 155.268 26.2234 153.542 26.2234ZM168.913 14.8476C167.017 14.8476 165.63 15.7586 164.753 17.8746H164.725V15.1705H162.547V27.8118H164.725V21.8155C164.725 18.4339 166.168 16.7878 168.205 16.7878C169.845 16.7878 170.808 17.8746 170.808 19.9618V27.8118H172.987V19.6678C172.987 16.0815 170.922 14.8476 168.913 14.8476ZM181.353 16.7013C183.335 16.7013 184.609 17.9063 185.116 19.5524H187.267C186.618 16.7589 184.436 14.7611 181.353 14.7611C177.732 14.7611 175.212 17.7593 175.212 21.4638C175.212 25.1683 177.732 28.1664 181.353 28.1664C184.436 28.1664 186.618 26.1686 187.267 23.3751H185.116C184.606 25.0212 183.335 26.2263 181.353 26.2263C178.892 26.2263 177.421 23.992 177.421 21.4638C177.421 18.9355 178.892 16.7013 181.353 16.7013ZM194.946 26.2234C192.681 26.2234 191.183 24.2832 191.069 21.9625H201.028C200.942 16.9636 198.056 14.7611 195.087 14.7611C191.352 14.7611 188.863 17.7593 188.863 21.4638C188.863 25.1683 191.352 28.1664 195.032 28.1664C197.834 28.1664 199.955 26.5491 200.748 24.2284H198.456C197.89 25.4911 196.702 26.2263 194.948 26.2263L194.946 26.2234ZM194.973 16.6408C196.955 16.6408 198.453 18.0822 198.681 20.1982H191.152C191.491 18.0822 192.906 16.6408 194.973 16.6408ZM129.485 9.85161H131.663V7.58857H129.485V9.85161Z" fill="#2C2C2C"/>
<path d="M22.9914 21.4888V15.1696C14.4109 15.1696 7.30952 8.5765 6.13012 0H0C1.21547 12.0763 11.0447 21.4888 22.9914 21.4888Z" fill="#0537C8"/>
<path d="M0 36.6571H6.13009C7.31229 28.0806 14.4109 21.4875 22.9914 21.4875C18.8177 21.4875 14.9021 20.3372 11.5221 18.3279C5.22823 22.0727 0.790891 28.8013 0 36.6571Z" fill="#FFA500"/>
</g>
<defs>
<clipPath id="clip0_1_36">
<rect width="201.051" height="36.6558" fill="white"/>
</clipPath>
</defs>
</svg>
