<svg width="104" height="12" viewBox="0 0 104 12" fill="none" xmlns="http://www.w3.org/2000/svg">
    <g clip-path="url(#clip0_21_3403)">
        <mask id="mask0_21_3403" style="mask-type:luminance" maskUnits="userSpaceOnUse" x="0" y="0" width="104" height="12">
            <path d="M104 0H0V12H104V0Z" fill="white"/>
        </mask>
        <g mask="url(#mask0_21_3403)">
            <path d="M14.7419 7.14442H15.5216C15.5579 7.69827 15.9568 8.33519 16.7637 8.33519C17.5706 8.33519 17.9423 7.88289 17.9423 7.33827C17.9423 6.80289 17.5615 6.35981 16.8634 6.07366L16.3466 5.86135C15.4128 5.47366 14.9232 4.83673 14.9232 4.01519C14.9232 3.05519 15.6485 2.38135 16.7002 2.38135C17.6068 2.38135 18.3503 2.87058 18.5316 4.06135H17.77C17.6522 3.35058 17.1989 3.0275 16.6639 3.0275C16.1744 3.0275 15.6576 3.37827 15.6576 4.00596C15.6576 4.50442 15.984 4.90135 16.5642 5.14135L17.1626 5.39058C18.042 5.75981 18.6767 6.35058 18.6767 7.31058C18.6767 8.19673 18.0058 8.98135 16.7455 8.98135C15.3856 8.98135 14.7691 7.87366 14.7419 7.14442Z" fill="#0322A3"/>
            <path d="M20.3993 3.5354H19.7012V2.52002H20.3993V3.5354ZM20.3993 8.87079H19.7012V4.90156H20.3993V8.87079Z" fill="#0322A3"/>
            <path d="M21.6686 4.90134H22.3667V5.75057H22.3758C22.6568 5.09519 23.092 4.7998 23.6813 4.7998C24.2072 4.7998 24.7511 5.07673 24.9143 5.80596H24.9234C25.1773 5.24288 25.6034 4.7998 26.2833 4.7998C26.918 4.7998 27.5708 5.19673 27.5708 6.31365V8.87057H26.8727V6.40596C26.8727 5.7598 26.5735 5.40904 26.0658 5.40904C25.422 5.40904 24.9687 5.93519 24.9687 6.9875V8.87057H24.2706V6.40596C24.2706 5.7598 23.9714 5.40904 23.4637 5.40904C22.82 5.40904 22.3667 5.93519 22.3667 6.9875V8.87057H21.6686V4.90134Z" fill="#0322A3"/>
            <path d="M28.7947 4.90154H29.4928V5.63077H29.5019C29.656 5.32616 30.064 4.79077 30.7893 4.79077C31.6234 4.79077 32.5663 5.51077 32.5663 6.88616C32.5663 8.26154 31.6234 8.98154 30.7893 8.98154C30.064 8.98154 29.656 8.44616 29.5019 8.14154H29.4928V10.9938H28.7947V4.90154ZM31.8592 6.88616C31.8592 5.80616 31.1883 5.4 30.6352 5.4C30.0822 5.4 29.4203 5.80616 29.4203 6.88616C29.4203 7.96616 30.0822 8.37231 30.6352 8.37231C31.1883 8.37231 31.8592 7.96616 31.8592 6.88616Z" fill="#0322A3"/>
            <path d="M34.2617 8.87069H33.5636V2.30762H34.2617V8.87069Z" fill="#0322A3"/>
            <path d="M37.2264 8.98145C36.0478 8.98145 35.2499 8.03991 35.2499 6.87683C35.2499 5.71376 36.0478 4.77222 37.2445 4.77222C38.1965 4.77222 39.1213 5.46452 39.1485 7.03375H35.9571C35.9934 7.76299 36.4739 8.37222 37.1992 8.37222C37.7613 8.37222 38.1421 8.14145 38.3234 7.74452H39.0578C38.8039 8.47376 38.124 8.98145 37.2264 8.98145ZM35.9843 6.47991H38.396C38.3234 5.81529 37.8429 5.36299 37.2083 5.36299C36.5464 5.36299 36.0931 5.81529 35.9843 6.47991Z" fill="#0322A3"/>
            <path d="M40.3181 2.48291H44.407V3.14753H41.0524V5.25214H43.9355V5.91676H41.0524V8.8706H40.3181V2.48291Z" fill="#0322A3"/>
            <path d="M45.9573 3.5354H45.2592V2.52002H45.9573V3.5354ZM45.9573 8.87079H45.2592V4.90156H45.9573V8.87079Z" fill="#0322A3"/>
            <path d="M49.2665 4.7998C49.9102 4.7998 50.572 5.1875 50.572 6.31365V8.87057H49.8739V6.40596C49.8739 5.75057 49.5657 5.40904 49.0398 5.40904C48.3871 5.40904 47.9247 5.92596 47.9247 6.9875V8.87057H47.2266V4.90134H47.9247V5.75057H47.9337C48.2148 5.08596 48.659 4.7998 49.2665 4.7998Z" fill="#0322A3"/>
            <path d="M51.524 6.88616C51.524 5.51077 52.467 4.79077 53.3011 4.79077C54.0264 4.79077 54.4343 5.32616 54.5885 5.63077H54.5975V4.90154H55.2956V8.87077H54.5975V8.14154H54.5885C54.4343 8.44616 54.0264 8.98154 53.3011 8.98154C52.467 8.98154 51.524 8.26154 51.524 6.88616ZM54.6701 6.88616C54.6701 5.80616 54.0082 5.4 53.4552 5.4C52.9021 5.4 52.2312 5.80616 52.2312 6.88616C52.2312 7.96616 52.9021 8.37231 53.4552 8.37231C54.0082 8.37231 54.6701 7.96616 54.6701 6.88616Z" fill="#0322A3"/>
            <path d="M58.6049 4.7998C59.2486 4.7998 59.9104 5.1875 59.9104 6.31365V8.87057H59.2123V6.40596C59.2123 5.75057 58.9041 5.40904 58.3782 5.40904C57.7254 5.40904 57.263 5.92596 57.263 6.9875V8.87057H56.5649V4.90134H57.263V5.75057H57.2721C57.5532 5.08596 57.9974 4.7998 58.6049 4.7998Z" fill="#0322A3"/>
            <path d="M60.8533 6.87683C60.8533 5.71376 61.6602 4.77222 62.8207 4.77222C63.8089 4.77222 64.507 5.39991 64.7155 6.27683H64.0265C63.8633 5.75991 63.4553 5.38145 62.8207 5.38145C62.0319 5.38145 61.5604 6.08299 61.5604 6.87683C61.5604 7.67068 62.0319 8.37222 62.8207 8.37222C63.4553 8.37222 63.8633 7.99376 64.0265 7.47683H64.7155C64.507 8.35376 63.8089 8.98145 62.8207 8.98145C61.6602 8.98145 60.8533 8.03991 60.8533 6.87683Z" fill="#0322A3"/>
            <path d="M67.3357 8.98145C66.1571 8.98145 65.3593 8.03991 65.3593 6.87683C65.3593 5.71376 66.1571 4.77222 67.3538 4.77222C68.3058 4.77222 69.2306 5.46452 69.2578 7.03375H66.0664C66.1027 7.76299 66.5832 8.37222 67.3085 8.37222C67.8706 8.37222 68.2514 8.14145 68.4327 7.74452H69.1671C68.9133 8.47376 68.2333 8.98145 67.3357 8.98145ZM66.0936 6.47991H68.5053C68.4327 5.81529 67.9522 5.36299 67.3176 5.36299C66.6557 5.36299 66.2024 5.81529 66.0936 6.47991Z" fill="#0322A3"/>
            <path d="M73.3014 6.4706V8.8706H72.567V2.48291H74.5253C75.7856 2.48291 76.7194 3.21214 76.7194 4.47676C76.7194 5.74137 75.7856 6.4706 74.5253 6.4706H73.3014ZM74.5525 5.80599C75.432 5.80599 75.976 5.26137 75.976 4.47676C75.976 3.69214 75.432 3.14753 74.5525 3.14753H73.3014V5.80599H74.5525Z" fill="#0322A3"/>
            <path d="M78.306 8.87069H77.6079V2.30762H78.306V8.87069Z" fill="#0322A3"/>
            <path d="M79.3033 6.88616C79.3033 5.51077 80.2462 4.79077 81.0803 4.79077C81.8056 4.79077 82.2136 5.32616 82.3677 5.63077H82.3768V4.90154H83.0749V8.87077H82.3768V8.14154H82.3677C82.2136 8.44616 81.8056 8.98154 81.0803 8.98154C80.2462 8.98154 79.3033 8.26154 79.3033 6.88616ZM82.4493 6.88616C82.4493 5.80616 81.7875 5.4 81.2344 5.4C80.6814 5.4 80.0105 5.80616 80.0105 6.88616C80.0105 7.96616 80.6814 8.37231 81.2344 8.37231C81.7875 8.37231 82.4493 7.96616 82.4493 6.88616Z" fill="#0322A3"/>
            <path d="M85.4956 4.90146H86.6017V5.49223H85.4956V8.87069H84.7975V5.49223H83.8455V4.90146H84.7975V3.83069L85.4865 3.12915H85.4956V4.90146Z" fill="#0322A3"/>
            <path d="M89.6299 2.94454H89.3579C88.6598 2.94454 88.5147 3.45223 88.5147 4.26454V4.90146H89.3579V5.49223H88.5147V8.87069H87.8166V5.49223H86.8556V4.90146H87.8166V4.13531C87.8166 2.88916 88.3969 2.30762 89.2128 2.30762H89.6299V2.94454Z" fill="#0322A3"/>
            <path d="M89.784 6.87683C89.784 5.71376 90.6453 4.77222 91.8421 4.77222C93.0388 4.77222 93.9001 5.71376 93.9001 6.87683C93.9001 8.03991 93.0388 8.98145 91.8421 8.98145C90.6453 8.98145 89.784 8.03991 89.784 6.87683ZM93.1929 6.87683C93.1929 6.08299 92.6671 5.38145 91.8421 5.38145C91.017 5.38145 90.4912 6.08299 90.4912 6.87683C90.4912 7.67068 91.017 8.37222 91.8421 8.37222C92.6671 8.37222 93.1929 7.67068 93.1929 6.87683Z" fill="#0322A3"/>
            <path d="M97.028 4.83691H97.0824V5.55691H96.7832C96.1123 5.55691 95.5774 5.82461 95.5774 6.95076V8.87076H94.8793V4.90153H95.5774V5.83384H95.5865C95.8675 5.09538 96.3571 4.83691 97.028 4.83691Z" fill="#0322A3"/>
            <path d="M97.844 4.90134H98.5421V5.75057H98.5512C98.8322 5.09519 99.2674 4.7998 99.8567 4.7998C100.383 4.7998 100.927 5.07673 101.09 5.80596H101.099C101.353 5.24288 101.779 4.7998 102.459 4.7998C103.093 4.7998 103.746 5.19673 103.746 6.31365V8.87057H103.048V6.40596C103.048 5.7598 102.749 5.40904 102.241 5.40904C101.597 5.40904 101.144 5.93519 101.144 6.9875V8.87057H100.446V6.40596C100.446 5.7598 100.147 5.40904 99.6391 5.40904C98.9954 5.40904 98.5421 5.93519 98.5421 6.9875V8.87057H97.844V4.90134Z" fill="#0322A3"/>
        </g>
        <mask id="mask1_21_3403" style="mask-type:luminance" maskUnits="userSpaceOnUse" x="0" y="0" width="104" height="12">
            <path d="M104 0H0V12H104V0Z" fill="white"/>
        </mask>
        <g mask="url(#mask1_21_3403)">
            <path d="M0 0V12H11.7862V7.03385C10.4444 7.03385 9.157 7.53231 8.14157 8.44615C7.12614 9.36 6.4643 10.6154 6.27391 11.9908H4.27025C4.39718 10.7538 4.80516 9.56308 5.45794 8.52923C6.11071 7.48615 6.99922 6.62769 8.03278 6.00923C8.04184 6.00923 7.13521 5.40923 6.72722 5.03077C5.34914 3.72 4.46971 1.93846 4.27025 0.00923077H6.27391C6.4643 1.38462 7.12614 2.64 8.14157 3.55385C9.157 4.46769 10.4444 4.96615 11.7862 4.96615V0H0Z" fill="#0322A3"/>
        </g>
    </g>
    <defs>
        <clipPath id="clip0_21_3403">
            <rect width="104" height="12" fill="white"/>
        </clipPath>
    </defs>
</svg>
