<svg width="137" height="40" viewBox="0 0 137 40" fill="none" xmlns="http://www.w3.org/2000/svg">
<g clip-path="url(#clip0_46_21)">
<path d="M9.989 0C4.47352 0 0 4.47748 0 9.99785V29.9978C0 35.5225 4.47352 40 9.989 40H29.9713C35.4868 40 39.9603 35.5225 39.9603 29.9978V0H9.989Z" fill="#B0ED52"/>
<path d="M10.9227 15.969C10.5955 14.5383 12.0206 13.2713 13.8677 13.2713C15.5297 13.2713 17.196 13.6419 17.8289 15.9604H19.9602V19.4984C17.3036 17.3136 11.547 18.684 10.927 15.9647M33.0277 14.9865H28.2312L23.6673 19.9897V9.99186H19.9645V12.4138C19.8439 12.2586 19.7148 12.1035 19.5727 11.9526C18.225 10.5262 16.2875 9.80225 13.8032 9.80225C10.9356 9.80225 9.3038 11.0865 8.43838 12.1638C7.36628 13.504 6.88836 15.3269 7.21989 16.818C8.07671 20.6706 11.6504 21.2868 14.2725 21.6273C16.3435 21.8988 18.3283 22.2737 18.2724 24.1224C18.2164 26.0401 16.0593 26.5099 14.6384 26.5099C10.9442 26.5099 10.8194 23.7777 10.8194 23.7777H6.84961C6.90989 24.8033 7.21559 26.4495 8.48143 27.863C9.86353 29.4101 11.9345 30.1944 14.6384 30.1944C16.7137 30.1944 18.6039 29.5178 19.9559 28.3155V29.966H23.6587V25.2472L24.9676 23.8122L28.7092 29.966H33.0191L27.5768 20.955L33.0234 14.9822L33.0277 14.9865Z" fill="#4D5759"/>
<path d="M49.3883 27.4755C49.638 27.5574 49.9265 27.6005 50.258 27.6005C50.6714 27.6005 51.0029 27.4755 51.2526 27.2256C51.5024 26.9756 51.666 26.6438 51.7521 26.2732L46.4863 15.1118H49.9911L53.371 23.1187L56.3332 15.1118H59.6701L54.921 26.1094C54.301 27.5617 53.6552 28.6391 52.9533 29.3243C52.2472 30.031 51.4808 30.3844 50.6326 30.3844C50.3441 30.3844 50.116 30.3844 49.9265 30.3413C49.7198 30.3197 49.5519 30.281 49.4098 30.2379L49.018 30.1129C48.9147 30.0698 48.8114 30.031 48.708 30.0095V27.1868C48.8932 27.3118 49.1214 27.4152 49.3926 27.4755" fill="#4D5759"/>
<path d="M65.3758 25.8175C65.1691 25.8778 64.9409 25.9209 64.6912 25.9855C64.4415 26.0286 64.1745 26.0674 63.9032 26.089C63.632 26.1321 63.365 26.1321 63.1153 26.1321C62.4738 26.1321 61.9356 26.0717 61.4361 25.964C60.9582 25.839 60.5449 25.6753 60.2133 25.4253C59.8818 25.1754 59.6321 24.8435 59.4685 24.4298C59.3006 24.0377 59.2188 23.5378 59.2188 22.956V18.9741H62.0777V22.3958C62.0777 22.7061 62.1207 22.9776 62.2025 23.1629C62.2628 23.3697 62.3877 23.5378 62.5556 23.6628C62.7235 23.7877 62.9087 23.8696 63.1584 23.9127C63.4081 23.9558 63.6966 23.973 64.0281 23.973C64.5276 23.973 64.8978 23.93 65.1906 23.8481C65.4791 23.7446 65.7073 23.6412 65.8752 23.5378V18.9741H68.7341V30.0105H65.8752V25.6537C65.7504 25.6968 65.5867 25.7571 65.3758 25.8218" fill="#4D5759"/>
<path d="M76.3641 24.8602C76.1789 24.9421 75.9507 25.0282 75.658 25.067L74.8916 25.2135C74.56 25.2739 74.2716 25.3385 74.0218 25.4204C73.7721 25.5023 73.5654 25.6057 73.4018 25.7307C73.2339 25.8772 73.1134 26.041 73.0272 26.2263C72.9454 26.4116 72.9024 26.64 72.9024 26.933C72.9024 27.1614 72.9454 27.3683 73.0057 27.5363C73.0875 27.7216 73.1909 27.8466 73.3372 27.9716C73.4621 28.075 73.6085 28.1784 73.7721 28.2215C73.9573 28.2862 74.1467 28.3034 74.3534 28.3034C74.4567 28.3034 74.6031 28.2819 74.7667 28.2603C74.9346 28.2388 75.0982 28.2 75.3049 28.1353C75.49 28.0535 75.6795 27.9673 75.8646 27.8466C76.0498 27.7432 76.2177 27.5751 76.3641 27.3898C76.5277 27.2045 76.6526 26.9761 76.7387 26.6831C76.8205 26.4116 76.8851 26.1013 76.8851 25.7307V24.6102C76.7171 24.7137 76.532 24.7955 76.3684 24.8602M79.8086 28.6352C79.8301 28.8421 79.8904 29.0274 79.955 29.1351C80.0195 29.2816 80.0798 29.3635 80.1616 29.4238C80.2434 29.4842 80.308 29.5273 80.4114 29.5488V30.0056H77.2381L77.0702 29.4885C76.9884 29.2816 76.9669 29.0317 76.9669 28.7214L76.3253 29.3635C76.0971 29.5488 75.8689 29.7169 75.602 29.8634C75.3307 30.0099 75.0423 30.1349 74.6892 30.2168C74.3361 30.2987 73.9228 30.3418 73.4449 30.3418C72.967 30.3418 72.4933 30.2771 72.0757 30.1349C71.6581 29.9927 71.3093 29.76 70.9993 29.4928C70.7108 29.2041 70.4611 28.8507 70.2932 28.4154C70.1253 28.0017 70.0435 27.5018 70.0435 26.9416C70.0435 26.4848 70.108 26.0711 70.2501 25.6747C70.3965 25.2825 70.6032 24.9507 70.8529 24.6576C71.1242 24.3689 71.4342 24.119 71.8045 23.9337C72.179 23.7268 72.5924 23.6018 73.0703 23.5415L75.8689 23.1278C75.9723 23.1062 76.0756 23.1062 76.2005 23.0675C76.3253 23.0459 76.4287 23.0028 76.532 22.9209C76.6353 22.8606 76.7171 22.7744 76.7817 22.671C76.842 22.546 76.8851 22.3995 76.8851 22.2142C76.8851 22.0289 76.842 21.8608 76.8033 21.7143C76.743 21.5462 76.6353 21.4256 76.5148 21.3221C76.3684 21.1972 76.2048 21.1153 75.9766 21.0506C75.7484 20.9903 75.4599 20.9688 75.1284 20.9688C74.7366 20.9688 74.4438 21.0119 74.2156 21.0722C73.9659 21.1541 73.7807 21.279 73.6559 21.404C73.5095 21.5505 73.4061 21.7143 73.3459 21.8824L73.221 22.4857H70.3621C70.3621 22.3607 70.3836 22.1754 70.4267 21.9255C70.4697 21.6971 70.5515 21.4256 70.6764 21.1368C70.7797 20.8653 70.9649 20.5766 71.1758 20.2879C71.3825 19.9992 71.6538 19.7277 72.024 19.4777C72.3556 19.2493 72.7904 19.0425 73.2899 18.8959C73.7893 18.7494 74.3663 18.6675 75.0724 18.646C76.0455 18.646 76.8549 18.7494 77.4792 18.9347C78.082 19.1416 78.5556 19.4131 78.9087 19.7234C79.2402 20.0552 79.4684 20.4085 79.5933 20.8007C79.6966 21.1929 79.7612 21.5893 79.7612 21.9815V27.8337C79.7612 28.1655 79.7827 28.437 79.8215 28.6438" fill="#4D5759"/>
<path d="M87.8045 22.102C87.7227 21.8736 87.5979 21.6883 87.4515 21.5418C87.2836 21.3737 87.0984 21.2703 86.8917 21.1884C86.6635 21.1237 86.3923 21.085 86.0823 21.085C85.6044 21.085 85.2341 21.1884 84.9413 21.4168C84.6528 21.6452 84.4246 21.9167 84.2782 22.2485C84.1146 22.6019 84.0285 22.9725 83.9682 23.3689C83.9252 23.7611 83.8864 24.136 83.8864 24.4894C83.8864 24.8428 83.908 25.2349 83.9467 25.6314C83.9898 26.0451 84.0716 26.3985 84.2352 26.7303C84.3816 27.0621 84.5882 27.3552 84.8982 27.562C85.1867 27.7904 85.5828 27.8938 86.078 27.8938C86.4095 27.8938 86.698 27.8335 86.9477 27.687C87.1759 27.562 87.3826 27.3982 87.5505 27.2086C87.7184 27.0018 87.839 26.7949 87.9251 26.5665C87.9854 26.3597 88.0284 26.1528 88.0284 25.9632H91.0122C91.0122 26.1485 90.9907 26.3769 90.9304 26.67C90.8486 26.9802 90.7453 27.2733 90.5989 27.6051C90.4525 27.9154 90.2458 28.2472 90.0176 28.579C89.7507 28.9109 89.4579 29.1996 89.0833 29.4495C88.7087 29.721 88.2954 29.9279 87.8002 30.0916C87.3008 30.2597 86.7238 30.3416 86.078 30.3416C85.247 30.3416 84.5021 30.2166 83.8606 29.9667C83.2191 29.6952 82.6809 29.3246 82.2417 28.8247C81.8068 28.3248 81.4753 27.7258 81.2471 26.9802C81.0189 26.2563 80.894 25.4245 80.894 24.4894C80.894 23.5543 81.0189 22.7053 81.2686 21.977C81.5184 21.2703 81.8714 20.6497 82.3278 20.1498C82.7842 19.6499 83.3224 19.2793 83.9639 19.0294C84.5839 18.7579 85.3116 18.6372 86.078 18.6372C86.4095 18.6372 86.7626 18.6803 87.1329 18.7191C87.4859 18.7622 87.839 18.8656 88.192 18.9906C88.5451 19.1371 88.8766 19.3009 89.2082 19.5077C89.5182 19.7146 89.8109 19.9861 90.0779 20.2963C90.3276 20.6066 90.5343 20.9815 90.6979 21.3952C90.8658 21.8089 90.9692 22.3088 91.0079 22.8691H88.0241C87.9595 22.5803 87.8993 22.3088 87.7959 22.102" fill="#4D5759"/>
<path d="M101.001 18.9683V21.291H97.6645V30.0047H94.8056V21.291H91.4688V18.9683H101.001Z" fill="#4D5759"/>
<path d="M108.957 22.9502V18.9683H111.815V30.0047H108.957V25.2729H104.746V30.0047H101.887V18.9683H104.746V22.9502H108.957Z" fill="#4D5759"/>
<path d="M116.635 25.7728L120.657 18.9683H123.662V30.0047H120.803V23.3466H120.76L116.864 30.0047H113.733V18.9683H116.597V25.7728H116.635Z" fill="#4D5759"/>
<path d="M132.603 18.9683H136.418L131.858 23.5535L136.603 30.0047H132.874L129.637 25.3376L128.478 26.5184V30.0047H125.615V18.9683H128.478V23.157L132.603 18.9683Z" fill="#4D5759"/>
</g>
<defs>
<clipPath id="clip0_46_21">
<rect width="137" height="40" fill="white"/>
</clipPath>
</defs>
</svg>
