<svg preserveAspectRatio="none" overflow="visible" style="display: block;" width="88.4935" height="88.4935" viewBox="0 0 88.4935 88.4935" fill="none" xmlns="http://www.w3.org/2000/svg">
<g id="fi_18842275" clip-path="url(#clip0_0_24)">
<path id="Vector" d="M69.555 62.6427L25.8503 69.5673C13.793 71.4699 2.45479 63.24 0.54112 51.1717C-1.37255 39.1034 6.8684 27.7652 18.9367 25.8515L62.6414 18.9269C74.7097 17.0132 86.0369 25.2542 87.9506 37.3225C89.8642 49.3908 81.6233 60.729 69.555 62.6427Z" fill="#FFDEA7"/>
<path id="Vector_2" d="M29.3021 58.6049C27.9305 58.6049 26.8132 59.7221 26.8132 61.0937C26.8132 62.4654 27.9305 63.5826 29.3021 63.5826H34.2799C35.6515 63.5826 36.7687 62.4654 36.7687 61.0937C36.7687 59.7221 35.6515 58.6049 34.2799 58.6049H29.3021ZM40.0983 47.8087C40.0983 46.437 38.9811 45.3198 37.6094 45.3198H29.3021C27.9305 45.3198 26.8132 46.437 26.8132 47.8087C26.8132 49.1803 27.9305 50.2975 29.3021 50.2975H37.6094C38.9811 50.2975 40.0983 49.1803 40.0983 47.8087ZM15.1874 51.1272V37.8421C15.1874 26.0171 15.1874 20.077 18.351 16.9244C23.362 11.9135 62.4429 12.5329 66.8344 16.9244C67.8078 17.8979 69.3897 17.8979 70.3631 16.9244C71.3365 15.951 71.3365 14.3692 70.3631 13.3958C68.0954 11.1281 65.1641 9.85601 60.8279 9.2808C51.514 8.01977 34.4347 7.92022 24.3575 9.2808C20.0214 9.86707 17.0789 11.1392 14.8224 13.3958C12.5658 15.6523 11.2826 18.5947 10.7074 22.9309C10.1986 26.703 10.1986 31.3821 10.1986 37.8421V51.1382C10.1986 52.5099 11.3158 53.6271 12.6875 53.6271C14.0591 53.6271 15.1874 52.5099 15.1874 51.1272ZM75.6616 28.0304C73.9581 26.3269 71.6905 25.3866 69.279 25.3866C66.8676 25.3866 64.5999 26.3269 62.8964 28.0304L61.3478 29.5679C60.0978 30.8511 46.0163 44.7999 45.1535 45.9171C44.5562 46.6804 44.0473 47.51 43.627 48.3839C42.6757 50.3639 41.0496 55.7841 40.3195 57.9854C39.7996 59.534 40.1979 61.1933 41.3483 62.3437C42.1668 63.1512 43.2398 63.5937 44.346 63.5937C44.7995 63.5937 54.5559 60.419 55.3081 60.0539C56.182 59.6336 57.0116 59.1248 57.7749 58.5274C58.4275 58.0186 58.9695 57.4655 59.9651 56.47L74.113 42.3221L75.6506 40.7845C77.3541 39.081 78.2943 36.8133 78.2943 34.4019C78.3054 32.0015 77.3651 29.7339 75.6616 28.0304ZM56.4364 52.9634C55.5515 53.8483 55.109 54.2908 54.6997 54.6116C54.213 54.9766 53.6931 55.3085 53.14 55.5629C52.6865 55.7841 52.1556 55.9611 50.8835 56.3815L46.9013 57.7089L45.961 56.7686L47.2995 52.7864C47.7198 51.5254 47.8968 50.9834 48.118 50.5298C48.3725 49.9767 48.6932 49.4568 49.0693 48.9701C49.3901 48.5608 49.8215 48.1184 50.7175 47.2334L61.9894 35.9505C62.5425 37.0125 63.3279 38.1407 64.423 39.2358C65.5181 40.331 66.6574 41.1053 67.7083 41.6694L56.4364 52.9634ZM72.133 37.2558L71.5246 37.8642C70.6286 37.6098 69.2569 37.0124 67.9516 35.7182C66.6685 34.424 66.0822 33.0524 65.8057 32.1453L66.403 31.5259C67.1663 30.7626 68.1839 30.3423 69.268 30.3423C70.352 30.3423 71.3586 30.7626 72.133 31.5259C72.8962 32.2891 73.3166 33.3068 73.3166 34.3908C73.3276 35.4859 72.9073 36.4925 72.133 37.2558ZM53.3945 34.5236C53.3945 33.1519 52.2772 32.0347 50.9056 32.0347H29.3021C27.9305 32.0347 26.8132 33.1519 26.8132 34.5236C26.8132 35.8952 27.9305 37.0124 29.3021 37.0124H50.8945C52.2772 37.0124 53.3945 35.8952 53.3945 34.5236ZM72.4869 48.6383C71.1153 48.6383 69.998 49.7555 69.998 51.1272C69.998 53.5497 69.9981 55.7178 69.9649 57.6757V57.731C69.8653 65.2308 69.3454 69.5117 66.8455 72.0227L66.8344 72.0337C66.8233 72.0448 66.8233 72.0448 66.8233 72.0448C63.6597 75.1974 57.7196 75.1974 45.9168 75.1974H39.2687C27.4437 75.1974 21.5036 75.1974 18.351 72.0337C17.3776 71.0603 15.7958 71.0603 14.8224 72.0337C13.8489 73.0072 13.8489 74.589 14.8224 75.5624C17.09 77.8301 20.0214 79.1022 24.3575 79.6774C28.1296 80.1862 32.8087 80.1862 39.2687 80.1862H45.9057C52.3657 80.1862 57.0338 80.1862 60.8058 79.6884C65.142 79.1022 68.0844 77.8301 70.341 75.5735C70.352 75.5624 70.352 75.5624 70.3631 75.5514C70.3741 75.5403 70.3741 75.5403 70.3852 75.5292C70.3963 75.5182 70.3963 75.5182 70.4073 75.5071C70.4184 75.4961 70.4184 75.4961 70.4295 75.485L70.4405 75.4739C70.4516 75.4629 70.4516 75.4629 70.4516 75.4629C72.0113 73.8589 73.0511 71.9895 73.7258 69.6665C74.0466 68.5714 74.29 67.3657 74.478 66.0273C74.9869 62.2552 74.9869 57.5761 74.9869 51.1161C74.9758 49.7555 73.8696 48.6383 72.4869 48.6383Z" fill="#0537C8"/>
</g>
<defs>
<clipPath id="clip0_0_24">
<rect width="88.4935" height="88.4935" fill="white"/>
</clipPath>
</defs>
</svg>
