<svg width="143" height="36" viewBox="0 0 143 36" fill="none" xmlns="http://www.w3.org/2000/svg">
<g clip-path="url(#clip0_2106_1019)">
<path d="M2.65216 17.7879C2.65216 17.6407 2.65578 17.4943 2.66297 17.3488L0.014424 17.2168C0.00540921 17.4063 0 17.5967 0 17.7879C0 20.9453 1.28461 23.8045 3.36253 25.8744L5.24032 24.0039C3.64288 22.4108 2.65216 20.2125 2.65216 17.7879Z" fill="url(#paint0_linear_2106_1019)"/>
<path d="M11.4801 8.99404C11.628 8.99404 11.7749 8.99944 11.9209 9.00662L12.0535 6.3674C11.8633 6.35842 11.6722 6.35303 11.4801 6.35303C8.31058 6.35303 5.44021 7.63267 3.3623 9.70255L5.2401 11.5731C6.83933 9.98004 9.04612 8.99404 11.4801 8.99404Z" fill="url(#paint1_linear_2106_1019)"/>
<path d="M11.4806 26.5818C11.3327 26.5818 11.1858 26.5782 11.0398 26.571L10.9072 29.2093C11.0974 29.2183 11.2886 29.2237 11.4806 29.2237C14.6502 29.2237 17.5205 27.9441 19.5984 25.8742L17.7206 24.0037C16.1214 25.5949 13.9145 26.5818 11.4806 26.5818Z" fill="url(#paint2_linear_2106_1019)"/>
<path d="M16.4576 10.5287L18.6905 8.88988C16.7199 7.30311 14.212 6.35303 11.4805 6.35303V8.99495C13.3259 8.99404 15.0396 9.56158 16.4576 10.5287Z" fill="url(#paint3_linear_2106_1019)"/>
<path d="M22.7761 15.7404C22.8969 16.406 22.96 17.0905 22.96 17.7903C22.96 21.0343 21.6046 23.9634 19.428 26.0444L19.1828 26.2721L17.4005 24.3093C19.1854 22.6986 20.3087 20.3721 20.3087 17.7894L20.3076 17.6722L20.3051 17.555L22.7761 15.7404ZM41.4197 12.4525L41.6853 12.6543L41.8261 12.78L39.6362 14.3446C38.8293 13.7865 37.8664 13.4934 36.8829 13.5064C35.2214 13.4415 33.6573 14.2837 32.807 15.7011C31.9568 17.1185 31.9568 18.8838 32.807 20.3013C33.6573 21.7187 35.2214 22.5609 36.8829 22.4959C37.6958 22.4984 38.4984 22.3263 39.236 21.9928L39.5094 21.8603L40.1925 21.4901L42.1712 22.8871C40.7281 24.2906 38.7691 25.0477 36.7491 24.9825C34.7565 25.0244 32.8235 24.307 31.3481 22.9779C29.9691 21.6546 29.2043 19.8238 29.2356 17.9208L29.2354 17.6864C29.2654 15.892 30.0252 14.1816 31.3481 12.9477C32.8426 11.6532 34.7727 10.9626 36.7561 11.0129C38.4317 10.9662 40.0718 11.4746 41.4197 12.4525ZM136.854 17.6831C137.679 17.679 138.487 17.9225 139.17 18.3818V20.0303C138.686 19.2148 137.808 18.7091 136.854 18.6962C135.333 18.6962 134.495 19.5762 134.495 21.2945V21.3364C134.495 23.1245 135.347 23.9487 136.882 23.9487C137.835 24.0201 138.749 23.5563 139.248 22.7474V24.1024C138.625 24.7184 137.758 25.028 136.882 24.9476V24.9406C134.593 24.9406 133.277 23.7252 133.277 21.2805C133.277 18.8359 134.812 17.6831 136.854 17.6831ZM128.861 17.6834C130.911 17.6834 132.058 18.9127 132.058 20.9802V21.7346H126.517C126.478 22.3573 126.721 22.9646 127.18 23.3914C127.639 23.8181 128.266 24.0199 128.89 23.9418C130.298 23.9418 131.164 23.4109 131.558 22.7404V24.0954C131.199 24.5285 130.305 24.9406 128.89 24.9406C126.594 24.9406 125.277 23.7252 125.277 21.2805C125.277 18.8359 126.812 17.6834 128.861 17.6834ZM112.623 17.6484C114.454 17.6484 115.081 18.3469 115.081 19.4645C115.126 20.1867 114.666 20.8452 113.968 21.057C114.926 21.2386 115.447 21.7555 115.447 22.6496C115.447 24.2212 114.13 24.9126 112.518 24.9126C111.556 24.9932 110.601 24.6861 109.87 24.0605L109.898 22.7404C110.511 23.5695 111.513 24.0242 112.546 23.9418C113.546 23.9418 114.271 23.5366 114.271 22.7613C114.271 21.986 113.68 21.7485 112.546 21.7485H111.461V20.7916H112.335C113.243 20.7916 113.898 20.4563 113.898 19.674C113.898 19.0175 113.546 18.6822 112.623 18.6543C111.579 18.6441 110.594 19.1328 109.976 19.9674V18.3469C110.707 17.9281 111.529 17.6908 112.37 17.6535L112.623 17.6484ZM99.0821 15.0361V16.1537H93.4488V18.3818H95.4345C98.2512 18.3818 99.7229 19.3667 99.7229 21.553C99.7229 23.7392 98.2019 24.8079 95.4345 24.8079H92.139V15.0361H99.0821ZM102.878 17.83V23.0198L106.962 17.83H108.018V24.8079H106.814V19.5693L102.878 24.6402L102.744 24.8079H101.673V17.83H102.878ZM118.489 17.83V20.7497H122.313V17.83H123.517V24.8079H122.313V21.7904H118.489V24.8079H117.285V17.83H118.489ZM70.2394 11.1945L67.0495 13.4575H62.6062V16.7893H69.1197V19.0524H62.6062V22.5378H70.2394V24.8009H59.5642V11.1945H70.2394ZM56.9094 11.1945L53.7196 13.4575H47.7904V16.5029H51.5014C54.8674 16.5029 56.7264 17.9278 56.7123 20.5262C56.7123 23.1678 54.7621 24.7135 51.3729 24.7973L51.0789 24.8009H44.7414V11.1945H56.9094ZM78.8866 11.1945C82.5905 11.1945 84.9002 13.0594 84.9002 16.0629C84.9002 18.9893 82.7141 20.8548 79.1692 20.9486L78.8866 20.9523H76.1333V24.8009H73.0772V11.1945H78.8866ZM93.4417 19.5064V23.6973H95.3852C97.3147 23.6973 98.3568 23.1106 98.3568 21.4831C98.3568 20.0093 97.4273 19.5204 95.343 19.5204L93.4417 19.5064ZM50.9663 18.766H47.7904V22.5448H50.9663C52.8323 22.5378 53.7829 21.9092 53.7829 20.6519C53.7829 19.3946 52.9027 18.766 50.9663 18.766ZM20.6266 10.7427C21.1723 11.4532 21.6337 12.2258 22.0014 13.0447L11.5479 20.8228L7.18066 18.0587V14.7341L11.5479 17.4902L20.6266 10.7427ZM127.235 19.2109C126.828 19.5691 126.576 20.0683 126.531 20.6031L126.523 20.7422L130.854 20.7427C130.909 20.1974 130.72 19.6557 130.336 19.2616C129.952 18.8674 129.413 18.6606 128.861 18.6962C128.271 18.6332 127.68 18.8201 127.235 19.2109ZM78.8302 13.4575H76.1262V18.6962H78.8302C80.7808 18.6962 81.8581 17.7532 81.8581 16.0699C81.8581 14.3865 80.7808 13.4575 78.8302 13.4575Z" fill="#21A038"/>
<path d="M11.4815 26.5825C8.8897 26.5825 6.55483 25.4636 4.93847 23.6855L2.96875 25.4609C5.06918 27.7723 8.1054 29.2244 11.4815 29.2244V26.5825Z" fill="url(#paint4_linear_2106_1019)"/>
<path d="M5.56033 11.2705L3.77811 9.30835C1.45769 11.4007 0 14.4251 0 17.7882H2.65216C2.65305 15.2055 3.77539 12.8806 5.56033 11.2705Z" fill="url(#paint5_linear_2106_1019)"/>
</g>
<defs>
<linearGradient id="paint0_linear_2106_1019" x1="3.09768" y1="25.5432" x2="0.408317" y2="17.7393" gradientUnits="userSpaceOnUse">
<stop offset="0.1444" stop-color="#F2E913"/>
<stop offset="0.3037" stop-color="#E7E518"/>
<stop offset="0.5823" stop-color="#CADB26"/>
<stop offset="0.891" stop-color="#A3CD39"/>
</linearGradient>
<linearGradient id="paint1_linear_2106_1019" x1="4.12029" y1="9.39033" x2="10.9513" y2="6.77706" gradientUnits="userSpaceOnUse">
<stop offset="0.0592" stop-color="#0FA8E0"/>
<stop offset="0.5385" stop-color="#0099F9"/>
<stop offset="0.9234" stop-color="#0291EB"/>
</linearGradient>
<linearGradient id="paint2_linear_2106_1019" x1="10.7322" y1="26.9733" x2="18.8971" y2="25.1208" gradientUnits="userSpaceOnUse">
<stop offset="0.1226" stop-color="#A3CD39"/>
<stop offset="0.2846" stop-color="#86C339"/>
<stop offset="0.8693" stop-color="#21A038"/>
</linearGradient>
<linearGradient id="paint3_linear_2106_1019" x1="10.9257" y1="8.04478" x2="17.7058" y2="10.1449" gradientUnits="userSpaceOnUse">
<stop offset="0.0566" stop-color="#0291EB"/>
<stop offset="0.79" stop-color="#0C8ACB"/>
</linearGradient>
<linearGradient id="paint4_linear_2106_1019" x1="3.63396" y1="25.908" x2="10.906" y2="28.6356" gradientUnits="userSpaceOnUse">
<stop offset="0.1324" stop-color="#F2E913"/>
<stop offset="0.2977" stop-color="#EBE716"/>
<stop offset="0.5306" stop-color="#D9E01F"/>
<stop offset="0.8023" stop-color="#BBD62D"/>
<stop offset="0.9829" stop-color="#A3CD39"/>
</linearGradient>
<linearGradient id="paint5_linear_2106_1019" x1="1.99542" y1="18.1082" x2="4.90551" y2="10.5086" gradientUnits="userSpaceOnUse">
<stop offset="0.0698" stop-color="#A3CD39"/>
<stop offset="0.2599" stop-color="#81C55F"/>
<stop offset="0.9216" stop-color="#0FA8E0"/>
</linearGradient>
<clipPath id="clip0_2106_1019">
<rect width="143" height="36" fill="white"/>
</clipPath>
</defs>
</svg>
