<svg width="1072" height="880" viewBox="0 0 1072 880" fill="none" xmlns="http://www.w3.org/2000/svg">
  <rect width="1072" height="880" rx="44" fill="url(#paint0_linear_101_2)"/>
  <rect x="0.5" y="0.5" width="1071" height="879" rx="43.5" stroke="white" stroke-opacity="0.45"/>
  <path d="M689 0H873L1072 214V880H689V0Z" fill="url(#paint1_linear_101_2)" fill-opacity="0.62"/>
  <rect x="92" y="122" width="273" height="580" rx="18" fill="#C7662E"/>
  <rect x="115" y="146" width="227" height="19" rx="9.5" fill="#7D340D"/>
  <rect x="115" y="297" width="227" height="19" rx="9.5" fill="#7D340D"/>
  <rect x="115" y="448" width="227" height="19" rx="9.5" fill="#7D340D"/>
  <rect x="115" y="599" width="227" height="19" rx="9.5" fill="#7D340D"/>
  <rect x="116" y="174" width="94" height="103" rx="10" fill="#E9D9C3"/>
  <rect x="218" y="174" width="110" height="103" rx="10" fill="#F6E9D9"/>
  <rect x="116" y="325" width="112" height="103" rx="10" fill="#F2E3D1"/>
  <rect x="236" y="325" width="92" height="103" rx="10" fill="#E7D5C1"/>
  <rect x="116" y="476" width="96" height="103" rx="10" fill="#F5E4D3"/>
  <rect x="220" y="476" width="108" height="103" rx="10" fill="#EADAC8"/>
  <rect x="116" y="627" width="98" height="53" rx="10" fill="#ECDCC9"/>
  <rect x="222" y="627" width="106" height="53" rx="10" fill="#F5E8D7"/>
  <rect x="403" y="152" width="569" height="622" rx="26" fill="url(#paint2_linear_101_2)"/>
  <path d="M404 219H972" stroke="#D8DEE5" stroke-width="6"/>
  <path d="M514 151L574 774" stroke="white" stroke-opacity="0.6" stroke-width="4"/>
  <path d="M645 151L688 774" stroke="white" stroke-opacity="0.6" stroke-width="4"/>
  <path d="M777 151L803 774" stroke="white" stroke-opacity="0.6" stroke-width="4"/>
  <ellipse cx="692" cy="201" rx="198" ry="92" fill="white" fill-opacity="0.68"/>
  <path d="M583 412C605 366 655 332 719 335C769 338 816 368 836 415L818 620H611L583 412Z" fill="#D7C0AC"/>
  <path d="M639 430C646 386 684 353 731 353C780 353 820 389 825 435L842 620H629L639 430Z" fill="#F6EFEA"/>
  <path d="M655 365C655 321 689 285 732 285C775 285 809 321 809 365C809 409 775 445 732 445C689 445 655 409 655 365Z" fill="#F2D8C8"/>
  <path d="M602 430C626 381 677 346 738 346C789 346 837 370 866 413L849 620H593L602 430Z" fill="url(#paint3_linear_101_2)" fill-opacity="0.34"/>
  <rect x="670" y="481" width="158" height="98" rx="12" transform="rotate(9 670 481)" fill="#2A3546"/>
  <rect x="682" y="492" width="134" height="76" rx="8" transform="rotate(9 682 492)" fill="#36465D"/>
  <rect x="655" y="507" width="137" height="20" rx="10" transform="rotate(-14 655 507)" fill="#C8B096"/>
  <path d="M496 443C518 389 565 348 627 343C677 339 724 362 752 401L728 620H505L496 443Z" fill="#C6B39D"/>
  <path d="M537 433C543 392 577 361 620 361C664 361 699 392 708 433L722 620H524L537 433Z" fill="#E9DDCF"/>
  <path d="M548 369C548 328 580 295 620 295C660 295 692 328 692 369C692 410 660 443 620 443C580 443 548 410 548 369Z" fill="#E8C8B7"/>
  <path d="M579 464C593 440 618 423 647 423C676 423 702 440 716 465L686 620H560L579 464Z" fill="#1D3A5B"/>
  <path d="M536 503C554 477 583 461 614 461C646 461 675 478 693 506L666 620H543L536 503Z" fill="#ECE8E2"/>
  <rect x="550" y="486" width="118" height="82" rx="12" transform="rotate(-6 550 486)" fill="#C8D8E6"/>
  <rect x="561" y="498" width="96" height="58" rx="8" transform="rotate(-6 561 498)" fill="#EEF6FB"/>
  <circle cx="849" cy="246" r="18" fill="#F6B66D" fill-opacity="0.84"/>
  <circle cx="884" cy="281" r="10" fill="#A9CFFF" fill-opacity="0.76"/>
  <circle cx="450" cy="300" r="12" fill="#FFCC8D" fill-opacity="0.66"/>
  <defs>
    <linearGradient id="paint0_linear_101_2" x1="548.5" y1="47" x2="548.5" y2="880" gradientUnits="userSpaceOnUse">
      <stop stop-color="#FDFBF7"/>
      <stop offset="1" stop-color="#F6F1E8"/>
    </linearGradient>
    <linearGradient id="paint1_linear_101_2" x1="880.5" y1="0" x2="880.5" y2="880" gradientUnits="userSpaceOnUse">
      <stop stop-color="white"/>
      <stop offset="1" stop-color="#FFF6EE"/>
    </linearGradient>
    <linearGradient id="paint2_linear_101_2" x1="688" y1="152" x2="688" y2="774" gradientUnits="userSpaceOnUse">
      <stop stop-color="#FAFCFE"/>
      <stop offset="1" stop-color="#F2F5F9"/>
    </linearGradient>
    <linearGradient id="paint3_linear_101_2" x1="734" y1="368" x2="734" y2="620" gradientUnits="userSpaceOnUse">
      <stop stop-color="#FFF7F0"/>
      <stop offset="1" stop-color="#D7E7F7" stop-opacity="0"/>
    </linearGradient>
  </defs>
</svg>
